<svg fill="#7c3aed" version="1.1" id="Capa_1" xmlns="http://www.w3.org/2000/svg"
    xmlns:xlink="http://www.w3.org/1999/xlink" viewBox="0 0 125.344 125.345" xml:space="preserve"><g id="SVGRepo_bgCarrier" stroke-width="0"></g><g id="SVGRepo_tracerCarrier" stroke-linecap="round" stroke-linejoin="round"></g><g id="SVGRepo_iconCarrier"> <g> <path d="M37.873,124.4l6-6.301c1.2-1.199,3.2-1.199,4.3,0l6,6.301c1.9,2,5.2,0.6,5.2-2.101V110.9h48.6c1.4,0,2.9-0.5,3.9-1.601 c1.6-1.8,1.7-4.399,0.399-6.3c-1.199-1.7-2-4-2.3-6s-0.2-4,0.4-6c0.7-2.2,2.8-4.301,2.8-6.6V6c0-3.3-2.7-6-6-6h-89 c-3.3,0-6,2.7-6,6v78.3V104.9c0,3.299,2.7,6,6,6h14.5V122.3C32.672,125,35.972,126.3,37.873,124.4z M32.072,13.1c0-1.7,1.3-3,3-3 h65c1.699,0,3,1.3,3,3v63.2c0,1.7-1.301,3-3,3h-65c-1.7,0-3-1.3-3-3V13.1z M25.172,100.9c-1.7,0-3-1.301-3-3V92.3c0-1.7,1.3-3,3-3 h75.2c-1.101,4.3-0.7,8.399,0.2,11.601h-41.2V94.6h-26.7v6.301H25.172z"></path> <path d="M42.873,29.6h6.3c1.7,0,3-1.3,3-3v-6.3c0-1.7-1.3-3-3-3h-6.3c-1.7,0-3,1.3-3,3v6.3C39.873,28.3,41.172,29.6,42.873,29.6z"></path> <path d="M42.873,51.3h6.3c1.7,0,3-1.3,3-3V42c0-1.7-1.3-3-3-3h-6.3c-1.7,0-3,1.3-3,3v6.3C39.873,49.9,41.172,51.3,42.873,51.3z"></path> <path d="M42.873,72.9h6.3c1.7,0,3-1.301,3-3V63.6c0-1.7-1.3-3-3-3h-6.3c-1.7,0-3,1.3-3,3V69.9C39.873,71.5,41.172,72.9,42.873,72.9 z"></path> </g> </g></svg>